# xmcd
#
# Track frame offsets:
#	150
#	13638
#	28030
#	42006
#	57387
#	72033
#	85026
#	100225
#	113872
#	128216
#	141330
#	155331
#	169327
#	182441
#	194645
#	208220
#
# Disc length: 2939 seconds
#
# Revision: 1
# Processed by: cddbd v1.5.1PL0 Copyright (c) Steve Scherf et al.
# Submitted via: audiograbber 1.80
#
DISCID=df0b7910
DTITLE=Rita de Cássia - Voz e Violão vol. 5
DYEAR=1900
DGENRE=
TTITLE0=Beijo inesperado
TTITLE1=Como te queria
TTITLE2=Teu silêncio
TTITLE3=Jeito de amar
TTITLE4=Pena de nós dois
TTITLE5=Fugitiva do amor
TTITLE6=Raio de luz
TTITLE7=Sstamos em crise
TTITLE8=Sem limites
TTITLE9=Semente do amor
TTITLE10=Tempo pra você e eu
TTITLE11=Erro e perdão
TTITLE12=Do outro lado
TTITLE13=Fica comigo
TTITLE14=Amor diferente
TTITLE15=Promessa de romeiro
EXTD=
EXTT0=
EXTT1=
EXTT2=
EXTT3=
EXTT4=
EXTT5=
EXTT6=
EXTT7=
EXTT8=
EXTT9=
EXTT10=
EXTT11=
EXTT12=
EXTT13=
EXTT14=
EXTT15=
PLAYORDER=
